<svg width="63" height="28" viewBox="0 0 63 28" fill="none" xmlns="http://www.w3.org/2000/svg">
<path d="M2.67113 26.2975C2.67113 26.6675 3.00413 27.0005 3.37413 27.0005H5.22413C5.66813 27.0005 6.26013 26.8525 6.26013 26.2975V15.2715H13.3271V26.2975C13.3271 26.6675 13.6601 27.0005 14.0301 27.0005H16.1391C16.5091 27.0005 16.8421 26.6675 16.8421 26.2975V12.9035C16.8421 12.5335 16.5091 12.2005 16.1391 12.2005H6.26013V7.61247C6.26013 5.05947 7.81413 3.98647 9.33113 3.98647C10.9591 3.98647 12.8461 4.98547 13.1791 5.17047C13.5861 5.39247 13.9191 5.42947 14.1411 4.98547L15.0661 3.32047C15.2511 3.02447 15.1771 2.58047 14.8811 2.39547C14.1041 1.91447 11.8101 0.730469 9.33113 0.730469C5.66813 0.730469 2.67113 3.20947 2.67113 7.61247V12.2005H0.932126C0.525126 12.2005 0.229126 12.4965 0.229126 12.9035V14.5685C0.229126 14.9385 0.525126 15.2715 0.932126 15.2715H2.67113V26.2975Z" fill="white"/>
<path d="M21.6501 26.2975C21.6501 26.6675 21.9831 27.0005 22.3531 27.0005H24.1291C24.7211 27.0005 25.1281 26.9265 25.1281 26.2975V16.8995C25.2761 16.6405 26.3121 15.0865 28.4581 15.0865C28.9391 15.0865 29.4941 15.2345 29.7161 15.3455C30.0491 15.4935 30.4191 15.4195 30.6041 15.0125L31.4921 13.1995C31.8991 12.2005 30.1971 11.8305 28.7911 11.8305C26.0901 11.8305 24.7211 13.6065 24.4621 13.9765L24.0551 12.7185C23.9811 12.4225 23.6851 12.2005 23.4261 12.2005H22.3531C21.9831 12.2005 21.6501 12.5335 21.6501 12.9035V26.2975Z" fill="white"/>
<path d="M32.8984 19.6005C32.8984 23.8555 35.8584 27.3705 40.3354 27.3705C42.8144 27.3705 44.7384 26.4455 45.8114 25.5205C46.2554 25.1505 46.1444 24.8545 45.8854 24.5585L44.8494 23.1525C44.5534 22.7825 44.2944 22.9305 43.8504 23.1895C43.1104 23.6705 41.8894 24.2625 40.5574 24.2625C38.1524 24.2625 36.4134 22.3015 36.3024 20.3035H46.3664C46.6994 20.3035 46.9954 20.0445 47.0324 19.6745C47.0694 19.4155 47.1064 18.9345 47.1064 18.6755C47.1064 14.7165 44.1464 11.8305 40.2984 11.8305C35.8584 11.8305 32.8984 15.4195 32.8984 19.6005ZM36.4874 17.9725C36.7094 16.1225 38.2634 14.6795 40.2614 14.6795C42.0744 14.6795 43.5544 16.1965 43.6654 17.9725H36.4874Z" fill="white"/>
<path d="M50.6647 26.2975C50.6647 26.6675 50.9978 27.0005 51.3678 27.0005H53.4767C53.8467 27.0005 54.1798 26.6675 54.1798 26.2975V1.80347C54.1798 1.43347 53.8467 1.10047 53.4767 1.10047H51.3678C50.9978 1.10047 50.6647 1.43347 50.6647 1.80347V26.2975Z" fill="white"/>
<path d="M60.6773 6.16947C61.8983 6.16947 62.8603 5.20747 62.8603 4.02347C62.8603 2.80247 61.8983 1.84047 60.6773 1.84047C59.4933 1.84047 58.5683 2.80247 58.5683 4.02347C58.5683 5.20747 59.4933 6.16947 60.6773 6.16947ZM58.9753 26.2975C58.9753 26.6675 59.3083 27.0005 59.6783 27.0005H61.7873C62.1573 27.0005 62.4903 26.6675 62.4903 26.2975V12.9035C62.4903 12.5335 62.1573 12.2005 61.7873 12.2005H59.6783C59.3083 12.2005 58.9753 12.5335 58.9753 12.9035V26.2975Z" fill="white"/>
</svg>
