<svg width="138" height="31" viewBox="0 0 138 31" fill="none" xmlns="http://www.w3.org/2000/svg">
<path d="M7.24861 25.3965C5.07925 25.3965 3.42086 24.76 2.27343 23.4871C1.13496 22.2142 0.498497 20.4751 0.364032 18.2699L3.80632 17.4093C3.97664 20.8516 5.12407 22.5728 7.24861 22.5728C8.96976 22.5728 9.83033 21.7122 9.83033 19.991C9.83033 19.4801 9.75862 19.0094 9.61519 18.5792C9.48072 18.1399 9.27006 17.741 8.9832 17.3824C8.69635 17.0149 8.43638 16.7235 8.20331 16.5084C7.97024 16.2843 7.65201 16.0109 7.24861 15.6882L2.94575 12.2459C2.15689 11.6273 1.52491 10.843 1.0498 9.89276C0.583658 8.93358 0.350586 7.84441 0.350586 6.62527C0.350586 4.85034 0.90189 3.43846 2.0045 2.38964C3.10711 1.34082 4.56829 0.816406 6.38804 0.816406C8.34226 0.816406 9.89308 1.296 11.0405 2.25518C12.1969 3.20539 12.9096 4.55452 13.1785 6.30256C13.2054 6.49081 13.2368 6.75077 13.2726 7.08245L9.83033 7.94302C9.82137 7.79063 9.79895 7.56204 9.7631 7.25725C9.6107 6.16361 9.26558 5.28959 8.72772 4.6352C8.19883 3.97184 7.41893 3.64016 6.38804 3.64016C5.56332 3.64016 4.92686 3.87323 4.47864 4.33937C4.03043 4.79655 3.80632 5.4375 3.80632 6.26222C3.80632 7.61582 4.38004 8.74981 5.52747 9.66417L9.83033 13.1065C12.1252 14.9621 13.2726 17.1807 13.2726 19.7624C13.2726 21.5284 12.7258 22.9089 11.6322 23.904C10.5475 24.899 9.08629 25.3965 7.24861 25.3965Z" fill="white"/>
<path d="M20.4665 22.5728C21.3719 22.5728 22.2324 22.3397 23.0482 21.8735V11.224C23.0123 11.206 22.9227 11.1522 22.7793 11.0626C22.6358 10.973 22.5327 10.9147 22.47 10.8878C22.4162 10.8519 22.3221 10.7981 22.1876 10.7264C22.0531 10.6547 21.9411 10.6054 21.8515 10.5785C21.7708 10.5427 21.6632 10.5068 21.5287 10.471C21.4032 10.4261 21.2777 10.3948 21.1522 10.3768C21.0357 10.3589 20.9102 10.3499 20.7757 10.3499C20.4889 10.3499 20.2334 10.4172 20.0093 10.5516C19.7941 10.6771 19.6149 10.8295 19.4714 11.0088C19.328 11.1881 19.2025 11.4436 19.0949 11.7753C18.9963 12.1069 18.9246 12.4028 18.8798 12.6627C18.835 12.9137 18.7991 13.2544 18.7722 13.6847C18.7453 14.106 18.7274 14.4332 18.7184 14.6662C18.7184 14.8993 18.7184 15.2265 18.7184 15.6478C18.7184 15.6658 18.7184 15.6792 18.7184 15.6882C18.7184 15.8406 18.7184 16.0871 18.7184 16.4277C18.7184 16.7684 18.7184 17.0956 18.7184 17.4093C18.7184 17.7231 18.7184 18.0189 18.7184 18.2968C18.7274 18.8974 18.7543 19.4263 18.7991 19.8835C18.8529 20.3317 18.9381 20.7754 19.0546 21.2147C19.1801 21.6449 19.3594 21.9811 19.5924 22.2231C19.8345 22.4562 20.1258 22.5728 20.4665 22.5728ZM23.0482 30.3179V23.6081C22.5372 24.137 22.0083 24.5673 21.4615 24.899C20.9236 25.2307 20.3051 25.3965 19.6059 25.3965C18.9425 25.3965 18.3509 25.2307 17.831 24.899C17.32 24.5583 16.9076 24.1236 16.5939 23.5947C16.2891 23.0658 16.0336 22.4428 15.8274 21.7256C15.6302 20.9995 15.4913 20.2869 15.4106 19.5876C15.3389 18.8884 15.303 18.1623 15.303 17.4093V14.7873C15.303 14.0074 15.3389 13.2947 15.4106 12.6493C15.4823 12.0038 15.6123 11.3674 15.8006 10.7399C15.9888 10.1124 16.2353 9.58349 16.5401 9.1532C16.8539 8.71395 17.2662 8.36434 17.7772 8.10438C18.2881 7.83545 18.8798 7.70099 19.5521 7.70099C19.9376 7.70099 20.2961 7.75477 20.6278 7.86234C20.9685 7.96095 21.2912 8.12231 21.596 8.34641C21.9097 8.57052 22.1518 8.76774 22.3221 8.93806C22.5014 9.09942 22.7434 9.34145 23.0482 9.66417V7.94302H26.4905V30.3179H23.0482Z" fill="white"/>
<path d="M31.7077 25.3965C30.9547 25.3965 30.3496 25.1321 29.8924 24.6032C29.4352 24.0653 29.2067 23.4019 29.2067 22.6131V7.94302H32.6489V21.5643C32.6489 21.9228 32.7565 22.2142 32.9717 22.4383C33.1958 22.6624 33.4826 22.7744 33.8322 22.7744C34.0205 22.7744 34.2043 22.752 34.3835 22.7072C34.5628 22.6624 34.7376 22.5862 34.9079 22.4786C35.0872 22.3621 35.2262 22.2724 35.3248 22.2097C35.4234 22.138 35.5623 22.0214 35.7416 21.8601C35.9299 21.6987 36.0464 21.6001 36.0912 21.5643V7.94302H39.5335V25.1545H36.0912V23.2989C35.7506 23.5947 35.4996 23.8098 35.3382 23.9443C35.1858 24.0788 34.9483 24.2625 34.6256 24.4956C34.3029 24.7197 34.016 24.8855 33.765 24.9931C33.523 25.0917 33.2182 25.1814 32.8506 25.262C32.4831 25.3517 32.1021 25.3965 31.7077 25.3965Z" fill="white"/>
<path d="M47.2518 22.5728C47.4938 22.5728 47.7269 22.501 47.951 22.3576C48.1841 22.2142 48.3589 22.0752 48.4754 21.9408C48.5919 21.8063 48.7354 21.627 48.9057 21.4029C48.9326 21.3581 48.955 21.3267 48.9729 21.3088V16.5487C48.8295 16.6474 48.5919 16.7997 48.2603 17.0059C47.9286 17.2121 47.6641 17.3824 47.4669 17.5169C47.2697 17.6424 47.0322 17.8217 46.7543 18.0547C46.4764 18.2789 46.2612 18.4985 46.1088 18.7136C45.9564 18.9198 45.822 19.1753 45.7054 19.4801C45.5889 19.7849 45.5306 20.1031 45.5306 20.4348C45.5306 21.8601 46.1044 22.5728 47.2518 22.5728ZM45.5306 25.3965C44.5715 25.3965 43.7557 24.9841 43.0834 24.1594C42.42 23.3258 42.0884 22.389 42.0884 21.3491C42.0884 20.5154 42.2273 19.758 42.5052 19.0767C42.792 18.3954 43.0924 17.8531 43.4061 17.4497C43.7199 17.0373 44.2443 16.616 44.9793 16.1857C45.7144 15.7464 46.2702 15.4461 46.6467 15.2848C47.0232 15.1234 47.6776 14.859 48.6099 14.4914C48.7712 14.4287 48.8923 14.3794 48.9729 14.3435V13.1065C48.9729 12.2369 48.8519 11.5646 48.6099 11.0895C48.3678 10.6054 47.9151 10.3634 47.2518 10.3634C46.6601 10.3634 46.2343 10.5696 45.9744 10.9819C45.7234 11.3853 45.5799 11.9456 45.5441 12.6627C45.5351 12.7613 45.5306 12.9092 45.5306 13.1065H42.0884C42.1063 11.457 42.5679 10.1438 43.4733 9.16665C44.3787 8.18954 45.6382 7.70099 47.2518 7.70099C48.8564 7.70099 50.1159 8.1985 51.0302 9.19354C51.9536 10.1796 52.4152 11.4839 52.4152 13.1065V20.8516C52.4152 22.6445 52.5631 24.0788 52.859 25.1545H49.4301L48.9729 22.5728C48.7936 22.9313 48.6457 23.2092 48.5292 23.4064C48.4216 23.6036 48.2603 23.8502 48.0451 24.146C47.83 24.4328 47.6148 24.657 47.3997 24.8183C47.1846 24.9707 46.9156 25.1052 46.5929 25.2217C46.2702 25.3382 45.9161 25.3965 45.5306 25.3965Z" fill="white"/>
<path d="M55.3869 25.1545V7.94302H58.8292V10.2424C59.1788 9.56108 59.6853 8.96943 60.3486 8.46743C61.0209 7.95647 61.765 7.70099 62.5807 7.70099C62.6076 7.70099 62.7914 7.71891 63.132 7.75477V11.5601C62.4956 11.3091 61.8591 11.1836 61.2226 11.1836C60.5055 11.1836 59.9273 11.3988 59.488 11.829C59.0488 12.2593 58.8292 12.8286 58.8292 13.5367V25.1545H55.3869Z" fill="white"/>
<path d="M69.4519 25.3965C68.6182 25.3965 67.8921 25.2531 67.2735 24.9662C66.664 24.6794 66.1754 24.3073 65.8079 23.8502C65.4493 23.384 65.158 22.7924 64.9339 22.0752C64.7098 21.3491 64.5529 20.6275 64.4632 19.9104C64.3826 19.1842 64.3333 18.3416 64.3153 17.3824C64.2884 16.6294 64.2884 15.8764 64.3153 15.1234C64.3422 14.227 64.4005 13.4337 64.4901 12.7434C64.5887 12.0442 64.7546 11.3674 64.9876 10.713C65.2207 10.0586 65.521 9.52074 65.8886 9.09942C66.2651 8.67809 66.7536 8.34193 67.3542 8.09093C67.9638 7.83097 68.672 7.70099 69.4788 7.70099C70.2138 7.70099 70.8593 7.79959 71.415 7.99681C71.9798 8.18506 72.4459 8.4764 72.8135 8.87083C73.19 9.25629 73.4992 9.68658 73.7413 10.1617C73.9923 10.6368 74.1805 11.215 74.306 11.8963C74.4315 12.5686 74.5167 13.232 74.5615 13.8863C74.6153 14.5407 74.6422 15.2937 74.6422 16.1454V16.5487H67.7576V17.4093C67.7576 17.5259 67.7576 17.7096 67.7576 17.9606C67.7397 18.2923 67.7352 18.6374 67.7442 18.996C67.7621 19.3456 67.78 19.6907 67.798 20.0314C67.8159 20.372 67.8652 20.6992 67.9459 21.013C68.0265 21.3178 68.1251 21.5867 68.2417 21.8198C68.3582 22.0528 68.5196 22.2366 68.7258 22.3711C68.9409 22.5055 69.1919 22.5728 69.4788 22.5728C69.8373 22.5728 70.1332 22.5055 70.3662 22.3711C70.5993 22.2276 70.7696 22.017 70.8772 21.7391C70.9937 21.4612 71.0744 21.1833 71.1192 20.9054C71.164 20.6275 71.1909 20.2779 71.1999 19.8566V19.1305H74.6153V19.8162C74.5346 21.6539 74.0819 23.0434 73.2572 23.9846C72.4325 24.9259 71.164 25.3965 69.4519 25.3965ZM67.7576 14.8276H71.173V13.7922C71.164 13.335 71.1372 12.9361 71.0923 12.5955C71.0475 12.2548 70.9668 11.9142 70.8503 11.5736C70.7427 11.2329 70.5724 10.973 70.3393 10.7937C70.1063 10.6144 69.8194 10.5247 69.4788 10.5247C69.1292 10.5247 68.8333 10.6189 68.5913 10.8071C68.3582 10.9954 68.1834 11.2688 68.0669 11.6273C67.9593 11.977 67.8831 12.3221 67.8383 12.6627C67.7935 13.0034 67.7666 13.4112 67.7576 13.8863V14.8276Z" fill="white"/>
<path d="M83.5706 25.3965C81.4013 25.3965 79.7429 24.76 78.5954 23.4871C77.457 22.2142 76.8205 20.4751 76.6861 18.2699L80.1283 17.4093C80.2987 20.8516 81.4461 22.5728 83.5706 22.5728C85.2918 22.5728 86.1523 21.7122 86.1523 19.991C86.1523 19.4801 86.0806 19.0094 85.9372 18.5792C85.8027 18.1399 85.5921 17.741 85.3052 17.3824C85.0184 17.0149 84.7584 16.7235 84.5253 16.5084C84.2923 16.2843 83.974 16.0109 83.5706 15.6882L79.2678 12.2459C78.4789 11.6273 77.8469 10.843 77.3718 9.89276C76.9057 8.93358 76.6726 7.84441 76.6726 6.62527C76.6726 4.85034 77.2239 3.43846 78.3265 2.38964C79.4291 1.34082 80.8903 0.816406 82.7101 0.816406C84.6643 0.816406 86.2151 1.296 87.3625 2.25518C88.5189 3.20539 89.2316 4.55452 89.5005 6.30256C89.5274 6.49081 89.5588 6.75077 89.5946 7.08245L86.1523 7.94302C86.1434 7.79063 86.121 7.56204 86.0851 7.25725C85.9327 6.16361 85.5876 5.28959 85.0497 4.6352C84.5208 3.97184 83.741 3.64016 82.7101 3.64016C81.8853 3.64016 81.2489 3.87323 80.8007 4.33937C80.3524 4.79655 80.1283 5.4375 80.1283 6.26222C80.1283 7.61582 80.7021 8.74981 81.8495 9.66417L86.1523 13.1065C88.4472 14.9621 89.5946 17.1807 89.5946 19.7624C89.5946 21.5284 89.0478 22.9089 87.9542 23.904C86.8695 24.899 85.4083 25.3965 83.5706 25.3965Z" fill="white"/>
<path d="M96.7347 25.3965C95.3811 25.3965 94.395 25.0514 93.7765 24.3611C93.1669 23.6709 92.8532 22.6265 92.8352 21.2281V10.5247H91.1141V7.94302H92.8352V1.91901H96.2775V7.94302H98.8592V10.5247H96.2775V20.5692C96.2775 21.2595 96.3716 21.766 96.5599 22.0887C96.7481 22.4114 97.1291 22.5728 97.7028 22.5728C97.9538 22.5728 98.3393 22.5279 98.8592 22.4383V25.2351C97.9987 25.3427 97.2905 25.3965 96.7347 25.3965Z" fill="white"/>
<path d="M110.074 23.7829C109.276 24.8586 107.954 25.3965 106.107 25.3965C104.26 25.3965 102.938 24.8586 102.14 23.7829C101.342 22.7072 100.943 21.1564 100.943 19.1305V13.967C100.943 11.9411 101.342 10.3903 102.14 9.31456C102.938 8.23884 104.26 7.70099 106.107 7.70099C107.954 7.70099 109.276 8.23884 110.074 9.31456C110.871 10.3903 111.27 11.9411 111.27 13.967V19.1305C111.27 21.1564 110.871 22.7072 110.074 23.7829ZM105.461 22.4652C105.65 22.5369 105.865 22.5728 106.107 22.5728C106.349 22.5728 106.56 22.5369 106.739 22.4652C106.927 22.3935 107.079 22.3083 107.196 22.2097C107.322 22.1021 107.425 21.9497 107.505 21.7525C107.586 21.5463 107.649 21.3671 107.694 21.2147C107.738 21.0623 107.77 20.8426 107.788 20.5558C107.806 20.2689 107.815 20.0448 107.815 19.8835C107.824 19.7131 107.828 19.4621 107.828 19.1305V13.967C107.828 13.6353 107.824 13.3888 107.815 13.2275C107.815 13.0572 107.806 12.8286 107.788 12.5417C107.77 12.2548 107.738 12.0352 107.694 11.8828C107.649 11.7304 107.586 11.5556 107.505 11.3584C107.425 11.1522 107.322 10.9998 107.196 10.9012C107.079 10.7937 106.927 10.704 106.739 10.6323C106.56 10.5606 106.349 10.5247 106.107 10.5247C105.865 10.5247 105.65 10.5606 105.461 10.6323C105.282 10.704 105.13 10.7937 105.004 10.9012C104.888 10.9998 104.789 11.1522 104.708 11.3584C104.628 11.5556 104.565 11.7304 104.52 11.8828C104.475 12.0352 104.444 12.2548 104.426 12.5417C104.408 12.8286 104.395 13.0572 104.386 13.2275C104.386 13.3888 104.386 13.6353 104.386 13.967V19.1305C104.386 19.4621 104.386 19.7131 104.386 19.8835C104.395 20.0448 104.408 20.2689 104.426 20.5558C104.444 20.8426 104.475 21.0623 104.52 21.2147C104.565 21.3671 104.628 21.5463 104.708 21.7525C104.789 21.9497 104.888 22.1021 105.004 22.2097C105.13 22.3083 105.282 22.3935 105.461 22.4652Z" fill="white"/>
<path d="M114.094 25.1545V7.94302H117.536V9.79863C118.047 9.33249 118.464 8.9784 118.787 8.73636C119.11 8.48536 119.553 8.25229 120.118 8.03715C120.692 7.81304 121.301 7.70099 121.947 7.70099C122.682 7.70099 123.278 7.96991 123.735 8.50777C124.192 9.04563 124.421 9.70451 124.421 10.4844V25.1545H120.979V12.2459C120.979 11.6453 120.893 11.2105 120.723 10.9416C120.553 10.6637 120.208 10.5247 119.688 10.5247C119.392 10.5247 119.096 10.5875 118.8 10.713C118.513 10.8295 118.298 10.9416 118.155 11.0491C118.011 11.1478 117.805 11.3091 117.536 11.5332V25.1545H114.094Z" fill="white"/>
<path d="M132.301 25.3965C131.467 25.3965 130.741 25.2531 130.122 24.9662C129.513 24.6794 129.024 24.3073 128.657 23.8502C128.298 23.384 128.007 22.7924 127.783 22.0752C127.558 21.3491 127.402 20.6275 127.312 19.9104C127.231 19.1842 127.182 18.3416 127.164 17.3824C127.137 16.6294 127.137 15.8764 127.164 15.1234C127.191 14.227 127.249 13.4337 127.339 12.7434C127.437 12.0442 127.603 11.3674 127.836 10.713C128.069 10.0586 128.37 9.52074 128.737 9.09942C129.114 8.67809 129.602 8.34193 130.203 8.09093C130.812 7.83097 131.521 7.70099 132.327 7.70099C133.063 7.70099 133.708 7.79959 134.264 7.99681C134.828 8.18506 135.295 8.4764 135.662 8.87083C136.039 9.25629 136.348 9.68658 136.59 10.1617C136.841 10.6368 137.029 11.215 137.155 11.8963C137.28 12.5686 137.365 13.232 137.41 13.8863C137.464 14.5407 137.491 15.2937 137.491 16.1454V16.5487H130.606V17.4093C130.606 17.5259 130.606 17.7096 130.606 17.9606C130.588 18.2923 130.584 18.6374 130.593 18.996C130.611 19.3456 130.629 19.6907 130.647 20.0314C130.665 20.372 130.714 20.6992 130.795 21.013C130.875 21.3178 130.974 21.5867 131.09 21.8198C131.207 22.0528 131.368 22.2366 131.574 22.3711C131.79 22.5055 132.041 22.5728 132.327 22.5728C132.686 22.5728 132.982 22.5055 133.215 22.3711C133.448 22.2276 133.618 22.017 133.726 21.7391C133.842 21.4612 133.923 21.1833 133.968 20.9054C134.013 20.6275 134.04 20.2779 134.049 19.8566V19.1305H137.464V19.8162C137.383 21.6539 136.931 23.0434 136.106 23.9846C135.281 24.9259 134.013 25.3965 132.301 25.3965ZM130.606 14.8276H134.022V13.7922C134.013 13.335 133.986 12.9361 133.941 12.5955C133.896 12.2548 133.816 11.9142 133.699 11.5736C133.591 11.2329 133.421 10.973 133.188 10.7937C132.955 10.6144 132.668 10.5247 132.327 10.5247C131.978 10.5247 131.682 10.6189 131.44 10.8071C131.207 10.9954 131.032 11.2688 130.916 11.6273C130.808 11.977 130.732 12.3221 130.687 12.6627C130.642 13.0034 130.615 13.4112 130.606 13.8863V14.8276Z" fill="white"/>
</svg>
