<svg width="120" height="23" viewBox="0 0 120 23" fill="none" xmlns="http://www.w3.org/2000/svg">
<path d="M20.6738 6.76747H25.2527L20.5031 22.6372H15.2701L13.0517 13.2519L10.805 22.6372H5.57193L0.822388 6.76747H5.68569L8.16001 17.9161L10.6059 6.76747H15.7536L18.1995 17.9161L20.6738 6.76747Z" fill="white"/>
<path d="M37.1467 17.6033C37.8483 16.9207 38.199 15.9537 38.199 14.7023C38.199 13.451 37.8483 12.4935 37.1467 11.8299C36.4452 11.1473 35.6394 10.806 34.7293 10.806C33.8192 10.806 33.0134 11.1473 32.3119 11.8299C31.6104 12.5124 31.2596 13.4794 31.2596 14.7308C31.2596 15.9822 31.6104 16.9491 32.3119 17.6317C33.0134 18.2953 33.8192 18.6271 34.7293 18.6271C35.6394 18.6271 36.4452 18.2858 37.1467 17.6033ZM28.4156 20.5611C27.0125 19.0442 26.311 17.1008 26.311 14.7308C26.311 12.3607 27.0125 10.4173 28.4156 8.9005C29.8186 7.36472 31.525 6.59683 33.5348 6.59683C35.5636 6.59683 37.1183 7.34576 38.199 8.84362V6.76747H43.0623V22.6372H38.199V20.3335C37.0235 22.002 35.4498 22.8363 33.4779 22.8363C31.5061 22.8363 29.8186 22.0779 28.4156 20.5611Z" fill="white"/>
<path d="M45.316 6.76747H50.4922L54.1041 18.5702L57.716 6.76747H62.8922L57.261 22.6372H50.9472L45.316 6.76747Z" fill="white"/>
<path d="M71.8787 22.8363C69.5655 22.8363 67.6695 22.0968 66.1906 20.6179C64.7117 19.1201 63.9722 17.1387 63.9722 14.6739C63.9722 12.2091 64.7022 10.2467 66.1622 8.78674C67.6411 7.3268 69.5466 6.59683 71.8787 6.59683C74.2108 6.59683 76.1447 7.31732 77.6805 8.7583C79.2163 10.1993 79.9842 12.1996 79.9842 14.7592C79.9842 15.3091 79.9463 15.821 79.8704 16.295H68.9493C69.0441 16.9965 69.357 17.5748 69.8878 18.0299C70.4187 18.4659 70.9875 18.684 71.5943 18.684C72.22 18.684 72.6845 18.6271 72.9878 18.5133C73.2912 18.3806 73.5093 18.2574 73.642 18.1436C73.7937 18.0109 73.9833 17.8023 74.2108 17.5179H79.4722C79.0172 19.1106 78.1071 20.3999 76.742 21.3858C75.3768 22.3528 73.7557 22.8363 71.8787 22.8363ZM74.9218 13.2519C74.846 12.5124 74.5236 11.9152 73.9548 11.4601C73.386 10.9861 72.7129 10.7491 71.9356 10.7491C71.1582 10.7491 70.5041 10.9861 69.9732 11.4601C69.4423 11.9152 69.1105 12.5124 68.9777 13.2519H74.9218Z" fill="white"/>
<path d="M87.9713 6.76747V9.72527C89.1089 7.63965 90.6257 6.59683 92.5217 6.59683V11.5455H91.3272C90.2086 11.5455 89.3648 11.8109 88.796 12.3418C88.2462 12.8727 87.9713 13.8017 87.9713 15.1289V22.6372H83.108V6.76747H87.9713Z" fill="white"/>
<path d="M99.5985 4.97573C99.0486 5.52558 98.3756 5.8005 97.5792 5.8005C96.7829 5.8005 96.1098 5.52558 95.5599 4.97573C95.0101 4.42588 94.7352 3.75279 94.7352 2.95646C94.7352 2.14117 95.0101 1.4586 95.5599 0.908755C96.1098 0.358908 96.7829 0.0839844 97.5792 0.0839844C98.3756 0.0839844 99.0486 0.358908 99.5985 0.908755C100.148 1.4586 100.423 2.14117 100.423 2.95646C100.423 3.75279 100.148 4.42588 99.5985 4.97573ZM95.1618 22.6372V6.76747H100.025V22.6372H95.1618Z" fill="white"/>
<path d="M113.827 17.6601C114.472 16.9776 114.794 15.9916 114.794 14.7023C114.794 13.413 114.462 12.4366 113.798 11.773C113.135 11.0904 112.348 10.7491 111.438 10.7491C110.528 10.7491 109.741 11.0904 109.077 11.773C108.433 12.4366 108.11 13.413 108.11 14.7023C108.11 15.9916 108.442 16.9776 109.106 17.6601C109.788 18.3427 110.585 18.684 111.495 18.684C112.405 18.684 113.182 18.3427 113.827 17.6601ZM105.551 20.5895C103.958 19.0916 103.162 17.1198 103.162 14.6739C103.162 12.228 103.958 10.2751 105.551 8.81518C107.143 7.33628 109.115 6.59683 111.466 6.59683C113.817 6.59683 115.78 7.33628 117.354 8.81518C118.946 10.2751 119.742 12.228 119.742 14.6739C119.742 17.1198 118.956 19.0916 117.382 20.5895C115.808 22.0874 113.846 22.8363 111.495 22.8363C109.144 22.8363 107.162 22.0874 105.551 20.5895Z" fill="white"/>
</svg>
