<svg width="133" height="21" viewBox="0 0 133 21" fill="none" xmlns="http://www.w3.org/2000/svg">
<path d="M12.3895 21L21.2395 0H17.0095L10.7695 15.24L4.49953 0H0.269531L9.11953 21H12.3895Z" fill="white"/>
<path d="M26.2434 0V21H41.8734V17.28H30.2634V12.24H40.0734V8.52H30.2634V3.72H41.7234V0H26.2434Z" fill="white"/>
<path d="M47.6419 0V21H51.6619V13.59H56.5519L60.9619 21H65.4319L60.6319 12.9C63.0619 11.82 64.6219 9.51 64.6219 6.78C64.6219 4.86 63.9319 3.24 62.5219 1.95C61.1419 0.66 59.4319 0 57.3619 0H47.6419ZM57.3619 3.72C59.1319 3.72 60.4219 5.01 60.4219 6.78C60.4219 8.55 59.1319 9.87 57.3619 9.87H51.6619V3.72H57.3619Z" fill="white"/>
<path d="M76.1815 3.72V21H80.2315V3.72H87.1915V0H69.2215V3.72H76.1815Z" fill="white"/>
<path d="M92.6653 0V21H108.295V17.28H96.6853V12.24H106.495V8.52H96.6853V3.72H108.145V0H92.6653Z" fill="white"/>
<path d="M120.394 10.29L112.594 21H117.424L122.794 13.59L128.164 21H132.964L125.194 10.29L132.664 0H127.864L122.794 6.99L117.724 0H112.894L120.394 10.29Z" fill="white"/>
</svg>
